<svg width="1022" height="334" viewBox="0 0 1022 334" fill="none" xmlns="http://www.w3.org/2000/svg">
<path d="M480.033 142.911L480.06 142.864H480.006L480.033 142.911Z" fill="white"/>
<path d="M521.296 142.864L521.323 142.911L521.35 142.864H521.296Z" fill="white"/>
<path d="M562.586 142.864L562.613 142.911L562.64 142.864H562.586Z" fill="white"/>
<path d="M603.876 142.864L603.903 142.911L603.93 142.864H603.876Z" fill="white"/>
<path d="M603.882 71.4319H603.925L603.903 71.3945L603.882 71.4319Z" fill="white"/>
<path d="M562.635 71.4319L562.613 71.3945L562.592 71.4319H562.635Z" fill="white"/>
<path d="M541.922 35.7159H542.014L541.968 35.6363L541.922 35.7159Z" fill="white"/>
<path d="M500.724 35.7159L500.678 35.6363L500.632 35.7159H500.724Z" fill="white"/>
<path d="M459.434 35.7159L459.388 35.6363L459.342 35.7159H459.434Z" fill="white"/>
<path d="M418.144 35.7159L418.098 35.6363L418.052 35.7159H418.144Z" fill="white"/>
<path d="M418.101 107.148H418.095L418.098 107.153L418.101 107.148Z" fill="white"/>
<path d="M521.393 1.26007e-05H521.253L480.103 6.30035e-06H479.963L438.813 0H438.673L418.098 35.6363L418.144 35.7159H418.052L397.453 71.3945L397.475 71.4318L418.095 107.148H418.101L438.722 71.4318L438.743 71.3945L459.342 35.7159L459.388 35.6363L459.434 35.7159H500.632L500.678 35.6363L500.724 35.7159H541.922L541.968 35.6363L521.393 1.26007e-05Z" fill="white"/>
<path d="M438.716 142.864H438.77H480.006H480.06L500.678 107.153L500.675 107.148H459.391L459.388 107.153L459.385 107.148H418.101L418.098 107.153L438.716 142.864Z" fill="white"/>
<path d="M521.296 142.864L480.06 142.864L480.033 142.911L500.626 178.58H500.73H541.916H542.02H583.206H583.31L603.903 142.911L603.876 142.864H603.93L624.548 107.153L624.545 107.148L603.925 71.4319H603.882L583.261 107.148L583.258 107.153L562.64 142.864L562.613 142.911L562.586 142.864H521.35L521.323 142.911L521.296 142.864Z" fill="white"/>
<path d="M583.304 35.7159H583.212H542.014H541.922L521.323 71.3945L521.345 71.4319H562.592L562.613 71.3945L562.635 71.4319H603.882L603.903 71.3945L583.304 35.7159Z" fill="white"/>
<path d="M49.3475 248.725C59.2284 248.725 67.8648 250.497 75.2566 254.043C82.7239 257.588 88.5317 262.528 92.6802 268.864C96.8287 275.2 98.9029 282.629 98.9029 291.153C98.9029 299.6 96.8287 307.03 92.6802 313.441C88.5317 319.777 82.7239 324.717 75.2566 328.262C67.8648 331.808 59.2284 333.58 49.3475 333.58H9.06961V248.725H49.3475ZM28.1903 326L18.4602 316.609H50.8183C56.5508 316.609 61.5666 315.553 65.866 313.441C70.2407 311.329 73.5972 308.35 75.9354 304.503C78.2737 300.656 79.4428 296.206 79.4428 291.153C79.4428 286.023 78.2737 281.573 75.9354 277.802C73.5972 273.955 70.2407 270.976 65.866 268.864C61.5666 266.752 56.5508 265.696 50.8183 265.696H18.4602L28.1903 256.305V326ZM108.761 248.725H127.995V333.58H108.761V248.725ZM137.413 305.861H156.873C157.326 308.727 158.57 311.254 160.607 313.441C162.719 315.553 165.509 317.212 168.979 318.419C172.524 319.551 176.597 320.116 181.198 320.116C187.911 320.116 193.191 319.174 197.038 317.288C200.96 315.327 202.921 312.611 202.921 309.142C202.921 306.426 201.79 304.352 199.527 302.919C197.34 301.411 193.229 300.317 187.195 299.638L170.11 297.715C159.098 296.508 151.103 293.943 146.125 290.021C141.222 286.023 138.771 280.48 138.771 273.39C138.771 267.808 140.392 263.056 143.636 259.134C146.954 255.212 151.593 252.232 157.552 250.196C163.511 248.084 170.525 247.028 178.596 247.028C186.44 247.028 193.417 248.197 199.527 250.535C205.636 252.798 210.502 256.004 214.122 260.152C217.742 264.225 219.704 269.015 220.005 274.521H200.545C200.168 272.032 199.037 269.882 197.151 268.072C195.341 266.186 192.814 264.753 189.571 263.773C186.327 262.717 182.518 262.189 178.143 262.189C172.034 262.189 167.169 263.094 163.548 264.904C159.928 266.714 158.118 269.279 158.118 272.598C158.118 275.162 159.174 277.161 161.286 278.594C163.473 279.952 167.282 280.97 172.713 281.649L190.476 283.798C198.32 284.628 204.543 285.986 209.144 287.871C213.82 289.682 217.139 292.133 219.1 295.226C221.137 298.318 222.155 302.24 222.155 306.992C222.155 312.649 220.42 317.627 216.951 321.927C213.556 326.151 208.767 329.432 202.582 331.77C196.397 334.108 189.156 335.277 180.859 335.277C172.411 335.277 164.981 334.07 158.57 331.657C152.159 329.168 147.105 325.736 143.409 321.361C139.713 316.911 137.715 311.744 137.413 305.861ZM255.522 257.324H274.643V333.58H255.522V257.324ZM221.694 248.725H308.359V265.696H221.694V248.725ZM329.039 286.401H361.736C366.036 286.401 369.43 285.42 371.919 283.459C374.483 281.422 375.766 278.632 375.766 275.087C375.766 271.542 374.483 268.788 371.919 266.827C369.43 264.866 366.036 263.886 361.736 263.886H326.21L334.922 254.043V333.58H315.688V248.725H363.999C370.184 248.725 375.615 249.856 380.291 252.119C384.968 254.307 388.626 257.361 391.266 261.284C393.906 265.206 395.226 269.807 395.226 275.087C395.226 280.291 393.906 284.854 391.266 288.777C388.626 292.699 384.968 295.791 380.291 298.054C375.615 300.241 370.184 301.335 363.999 301.335H329.039V286.401ZM343.747 293.868H365.696L397.715 333.58H375.2L343.747 293.868ZM406.209 248.725H425.443V333.58H406.209V248.725ZM531.256 299.072C530.427 306.238 527.9 312.574 523.676 318.08C519.528 323.511 514.021 327.735 507.158 330.752C500.369 333.769 492.6 335.277 483.851 335.277C474.196 335.277 465.711 333.429 458.394 329.733C451.153 326.037 445.496 320.908 441.423 314.346C437.35 307.709 435.314 299.977 435.314 291.153C435.314 282.328 437.35 274.634 441.423 268.072C445.496 261.434 451.153 256.268 458.394 252.572C465.711 248.876 474.196 247.028 483.851 247.028C492.6 247.028 500.369 248.536 507.158 251.553C514.021 254.571 519.528 258.794 523.676 264.225C527.9 269.656 530.427 275.992 531.256 283.233H511.91C511.155 279.235 509.534 275.803 507.045 272.937C504.555 269.995 501.35 267.733 497.428 266.149C493.505 264.565 488.942 263.773 483.738 263.773C477.779 263.773 472.612 264.904 468.237 267.167C463.938 269.354 460.619 272.522 458.281 276.671C455.943 280.744 454.774 285.571 454.774 291.153C454.774 296.734 455.943 301.599 458.281 305.748C460.619 309.821 463.938 312.989 468.237 315.251C472.612 317.439 477.779 318.532 483.738 318.532C488.942 318.532 493.505 317.778 497.428 316.27C501.35 314.686 504.555 312.461 507.045 309.594C509.534 306.653 511.155 303.145 511.91 299.072H531.256ZM563.798 257.324H582.919V333.58H563.798V257.324ZM529.97 248.725H616.635V265.696H529.97V248.725ZM737.631 299.072C736.801 306.238 734.275 312.574 730.051 318.08C725.902 323.511 720.396 327.735 713.532 330.752C706.744 333.769 698.975 335.277 690.225 335.277C680.571 335.277 672.085 333.429 664.769 329.733C657.528 326.037 651.871 320.908 647.798 314.346C643.725 307.709 641.688 299.977 641.688 291.153C641.688 282.328 643.725 274.634 647.798 268.072C651.871 261.434 657.528 256.268 664.769 252.572C672.085 248.876 680.571 247.028 690.225 247.028C698.975 247.028 706.744 248.536 713.532 251.553C720.396 254.571 725.902 258.794 730.051 264.225C734.275 269.656 736.801 275.992 737.631 283.233H718.284C717.53 279.235 715.908 275.803 713.419 272.937C710.93 269.995 707.724 267.733 703.802 266.149C699.88 264.565 695.317 263.773 690.112 263.773C684.154 263.773 678.987 264.904 674.612 267.167C670.313 269.354 666.994 272.522 664.656 276.671C662.318 280.744 661.148 285.571 661.148 291.153C661.148 296.734 662.318 301.599 664.656 305.748C666.994 309.821 670.313 312.989 674.612 315.251C678.987 317.439 684.154 318.532 690.112 318.532C695.317 318.532 699.88 317.778 703.802 316.27C707.724 314.686 710.93 312.461 713.419 309.594C715.908 306.653 717.53 303.145 718.284 299.072H737.631ZM792.148 335.277C782.267 335.277 773.593 333.429 766.126 329.733C758.734 326.037 752.964 320.908 748.815 314.346C744.667 307.709 742.593 299.977 742.593 291.153C742.593 282.328 744.667 274.634 748.815 268.072C752.964 261.434 758.734 256.268 766.126 252.572C773.593 248.876 782.267 247.028 792.148 247.028C802.029 247.028 810.665 248.876 818.057 252.572C825.524 256.268 831.332 261.434 835.481 268.072C839.629 274.634 841.703 282.328 841.703 291.153C841.703 299.977 839.629 307.709 835.481 314.346C831.332 320.908 825.524 326.037 818.057 329.733C810.665 333.429 802.029 335.277 792.148 335.277ZM792.148 318.193C798.333 318.193 803.651 317.099 808.101 314.912C812.626 312.725 816.096 309.594 818.51 305.521C820.999 301.448 822.243 296.659 822.243 291.153C822.243 285.646 820.999 280.857 818.51 276.784C816.096 272.711 812.626 269.58 808.101 267.393C803.651 265.206 798.333 264.112 792.148 264.112C786.038 264.112 780.721 265.206 776.195 267.393C771.67 269.58 768.162 272.711 765.673 276.784C763.26 280.857 762.053 285.646 762.053 291.153C762.053 296.659 763.26 301.448 765.673 305.521C768.162 309.594 771.67 312.725 776.195 314.912C780.721 317.099 786.038 318.193 792.148 318.193ZM864.903 286.401H897.601C901.9 286.401 905.294 285.42 907.783 283.459C910.348 281.422 911.63 278.632 911.63 275.087C911.63 271.542 910.348 268.788 907.783 266.827C905.294 264.866 901.9 263.886 897.601 263.886H862.075L870.787 254.043V333.58H851.553V248.725H899.864C906.049 248.725 911.479 249.856 916.156 252.119C920.832 254.307 924.49 257.361 927.13 261.284C929.77 265.206 931.09 269.807 931.09 275.087C931.09 280.291 929.77 284.854 927.13 288.777C924.49 292.699 920.832 295.791 916.156 298.054C911.479 300.241 906.049 301.335 899.864 301.335H864.903V286.401ZM879.611 293.868H901.561L933.579 333.58H911.064L879.611 293.868ZM1012.22 283.798V298.507H951.464V283.798H1012.22ZM964.362 291.153L958.705 327.131L950.333 317.627H1015.73V333.58H939.358L945.92 291.153L939.358 248.725H1015.16V264.678H950.333L958.705 255.174L964.362 291.153Z" fill="white"/>
</svg>
