<svg width="1024" height="334" viewBox="0 0 1024 334" fill="none" xmlns="http://www.w3.org/2000/svg">
<g clip-path="url(#clip0_123_24)">
<path d="M522.296 142.864L481.06 142.864L481.033 142.911L501.626 178.58H501.73L522.323 142.911L522.296 142.864Z" fill="white"/>
<path d="M522.323 142.911L501.73 178.58H542.916L522.323 142.911Z" fill="white"/>
<path d="M543.02 178.58L563.613 142.911L563.586 142.864H522.35L522.323 142.911L542.916 178.58H543.02Z" fill="white"/>
<path d="M563.613 142.911L543.02 178.58H584.206L563.613 142.911Z" fill="white"/>
<path d="M584.31 178.58L604.903 142.911L604.876 142.864H563.64L563.613 142.911L584.206 178.58H584.31Z" fill="white"/>
<path d="M563.64 142.864H604.876L584.258 107.153L563.64 142.864Z" fill="white"/>
<path d="M625.545 107.148L584.261 107.148L584.258 107.153L604.876 142.864H604.93L625.548 107.153L625.545 107.148Z" fill="white"/>
<path d="M604.925 71.4319H604.882L584.261 107.148L625.545 107.148L604.925 71.4319Z" fill="white"/>
<path d="M584.304 35.7159H584.212L563.613 71.3945L563.635 71.4319H604.882L604.903 71.3945L584.304 35.7159Z" fill="white"/>
<path d="M563.613 71.3945L584.212 35.7159H543.014L563.613 71.3945Z" fill="white"/>
<path d="M542.922 35.7159L522.323 71.3945L522.345 71.4319H563.592L563.613 71.3945L543.014 35.7159H542.922Z" fill="white"/>
<path d="M522.393 1.26007e-05H522.253L501.678 35.6363L501.724 35.7159H542.922L542.968 35.6363L522.393 1.26007e-05Z" fill="white"/>
<path d="M501.678 35.6363L522.253 1.26007e-05L481.103 6.30035e-06L501.678 35.6363Z" fill="white"/>
<path d="M480.963 6.30035e-06L460.388 35.6363L460.434 35.7159H501.632L501.678 35.6363L481.103 6.30035e-06H480.963Z" fill="white"/>
<path d="M460.388 35.6363L480.963 6.30035e-06L439.813 0L460.388 35.6363Z" fill="white"/>
<path d="M439.673 0L419.098 35.6363L419.144 35.7159H460.342L460.388 35.6363L439.813 0H439.673Z" fill="white"/>
<path d="M460.342 35.7159H419.144L439.743 71.3945L460.342 35.7159Z" fill="white"/>
<path d="M398.453 71.3945L398.475 71.4318H439.722L439.743 71.3945L419.144 35.7159H419.052L398.453 71.3945Z" fill="white"/>
<path d="M419.095 107.148H419.101L439.722 71.4318H398.475L419.095 107.148Z" fill="white"/>
<path d="M439.716 142.864H439.77L460.388 107.153L460.385 107.148H419.101L419.098 107.153L439.716 142.864Z" fill="white"/>
<path d="M460.388 107.153L439.77 142.864H481.006L460.388 107.153Z" fill="white"/>
<path d="M481.06 142.864L501.678 107.153L501.675 107.148H460.391L460.388 107.153L481.006 142.864H481.06Z" fill="white"/>
<path d="M481.033 142.911L481.06 142.864H481.006L481.033 142.911Z" fill="white"/>
<path d="M522.296 142.864L522.323 142.911L522.35 142.864H522.296Z" fill="white"/>
<path d="M563.586 142.864L563.613 142.911L563.64 142.864H563.586Z" fill="white"/>
<path d="M604.876 142.864L604.903 142.911L604.93 142.864H604.876Z" fill="white"/>
<path d="M604.882 71.4319H604.925L604.903 71.3945L604.882 71.4319Z" fill="white"/>
<path d="M563.635 71.4319L563.613 71.3945L563.592 71.4319H563.635Z" fill="white"/>
<path d="M542.922 35.7159H543.014L542.968 35.6363L542.922 35.7159Z" fill="white"/>
<path d="M501.724 35.7159L501.678 35.6363L501.632 35.7159H501.724Z" fill="white"/>
<path d="M460.434 35.7159L460.388 35.6363L460.342 35.7159H460.434Z" fill="white"/>
<path d="M419.144 35.7159L419.098 35.6363L419.052 35.7159H419.144Z" fill="white"/>
<path d="M419.101 107.148H419.095L419.098 107.153L419.101 107.148Z" fill="white"/>
<path d="M50.3475 248.725C60.2284 248.725 68.8648 250.497 76.2566 254.043C83.7239 257.588 89.5317 262.528 93.6802 268.864C97.8287 275.2 99.9029 282.629 99.9029 291.153C99.9029 299.6 97.8287 307.03 93.6802 313.441C89.5317 319.777 83.7239 324.717 76.2566 328.262C68.8648 331.808 60.2284 333.58 50.3475 333.58H10.0696V248.725H50.3475ZM29.1903 326L19.4602 316.609H51.8183C57.5508 316.609 62.5666 315.553 66.866 313.441C71.2407 311.329 74.5972 308.35 76.9354 304.503C79.2737 300.656 80.4428 296.206 80.4428 291.153C80.4428 286.023 79.2737 281.573 76.9354 277.802C74.5972 273.955 71.2407 270.976 66.866 268.864C62.5666 266.752 57.5508 265.696 51.8183 265.696H19.4602L29.1903 256.305V326ZM109.761 248.725H128.995V333.58H109.761V248.725ZM138.413 305.861H157.873C158.326 308.727 159.57 311.254 161.607 313.441C163.719 315.553 166.509 317.212 169.979 318.419C173.524 319.551 177.597 320.116 182.198 320.116C188.911 320.116 194.191 319.174 198.038 317.288C201.96 315.327 203.921 312.611 203.921 309.142C203.921 306.426 202.79 304.352 200.527 302.919C198.34 301.411 194.229 300.317 188.195 299.638L171.11 297.715C160.098 296.508 152.103 293.943 147.125 290.021C142.222 286.023 139.771 280.48 139.771 273.39C139.771 267.808 141.392 263.056 144.636 259.134C147.954 255.212 152.593 252.232 158.552 250.196C164.511 248.084 171.525 247.028 179.596 247.028C187.44 247.028 194.417 248.197 200.527 250.535C206.636 252.798 211.502 256.004 215.122 260.152C218.742 264.225 220.704 269.015 221.005 274.521H201.545C201.168 272.032 200.037 269.882 198.151 268.072C196.341 266.186 193.814 264.753 190.571 263.773C187.327 262.717 183.518 262.189 179.143 262.189C173.034 262.189 168.169 263.094 164.548 264.904C160.928 266.714 159.118 269.279 159.118 272.598C159.118 275.162 160.174 277.161 162.286 278.594C164.473 279.952 168.282 280.97 173.713 281.649L191.476 283.798C199.32 284.628 205.543 285.986 210.144 287.871C214.82 289.682 218.139 292.133 220.1 295.226C222.137 298.318 223.155 302.24 223.155 306.992C223.155 312.649 221.42 317.627 217.951 321.927C214.556 326.151 209.767 329.432 203.582 331.77C197.397 334.108 190.156 335.277 181.859 335.277C173.411 335.277 165.981 334.07 159.57 331.657C153.159 329.168 148.105 325.736 144.409 321.361C140.713 316.911 138.715 311.744 138.413 305.861ZM256.522 257.324H275.643V333.58H256.522V257.324ZM222.694 248.725H309.359V265.696H222.694V248.725ZM330.039 286.401H362.736C367.036 286.401 370.43 285.42 372.919 283.459C375.483 281.422 376.766 278.632 376.766 275.087C376.766 271.542 375.483 268.788 372.919 266.827C370.43 264.866 367.036 263.886 362.736 263.886H327.21L335.922 254.043V333.58H316.688V248.725H364.999C371.184 248.725 376.615 249.856 381.291 252.119C385.968 254.307 389.626 257.361 392.266 261.284C394.906 265.206 396.226 269.807 396.226 275.087C396.226 280.291 394.906 284.854 392.266 288.777C389.626 292.699 385.968 295.791 381.291 298.054C376.615 300.241 371.184 301.335 364.999 301.335H330.039V286.401ZM344.747 293.868H366.696L398.715 333.58H376.2L344.747 293.868ZM407.209 248.725H426.443V333.58H407.209V248.725ZM532.256 299.072C531.427 306.238 528.9 312.574 524.676 318.08C520.528 323.511 515.021 327.735 508.158 330.752C501.369 333.769 493.6 335.277 484.851 335.277C475.196 335.277 466.711 333.429 459.394 329.733C452.153 326.037 446.496 320.908 442.423 314.346C438.35 307.709 436.314 299.977 436.314 291.153C436.314 282.328 438.35 274.634 442.423 268.072C446.496 261.434 452.153 256.268 459.394 252.572C466.711 248.876 475.196 247.028 484.851 247.028C493.6 247.028 501.369 248.536 508.158 251.553C515.021 254.571 520.528 258.794 524.676 264.225C528.9 269.656 531.427 275.992 532.256 283.233H512.91C512.155 279.235 510.534 275.803 508.045 272.937C505.555 269.995 502.35 267.733 498.428 266.149C494.505 264.565 489.942 263.773 484.738 263.773C478.779 263.773 473.612 264.904 469.237 267.167C464.938 269.354 461.619 272.522 459.281 276.671C456.943 280.744 455.774 285.571 455.774 291.153C455.774 296.734 456.943 301.599 459.281 305.748C461.619 309.821 464.938 312.989 469.237 315.251C473.612 317.439 478.779 318.532 484.738 318.532C489.942 318.532 494.505 317.778 498.428 316.27C502.35 314.686 505.555 312.461 508.045 309.594C510.534 306.653 512.155 303.145 512.91 299.072H532.256ZM564.798 257.324H583.919V333.58H564.798V257.324ZM530.97 248.725H617.635V265.696H530.97V248.725ZM738.631 299.072C737.801 306.238 735.275 312.574 731.051 318.08C726.902 323.511 721.396 327.735 714.532 330.752C707.744 333.769 699.975 335.277 691.225 335.277C681.571 335.277 673.085 333.429 665.769 329.733C658.528 326.037 652.871 320.908 648.798 314.346C644.725 307.709 642.688 299.977 642.688 291.153C642.688 282.328 644.725 274.634 648.798 268.072C652.871 261.434 658.528 256.268 665.769 252.572C673.085 248.876 681.571 247.028 691.225 247.028C699.975 247.028 707.744 248.536 714.532 251.553C721.396 254.571 726.902 258.794 731.051 264.225C735.275 269.656 737.801 275.992 738.631 283.233H719.284C718.53 279.235 716.908 275.803 714.419 272.937C711.93 269.995 708.724 267.733 704.802 266.149C700.88 264.565 696.317 263.773 691.112 263.773C685.154 263.773 679.987 264.904 675.612 267.167C671.313 269.354 667.994 272.522 665.656 276.671C663.318 280.744 662.148 285.571 662.148 291.153C662.148 296.734 663.318 301.599 665.656 305.748C667.994 309.821 671.313 312.989 675.612 315.251C679.987 317.439 685.154 318.532 691.112 318.532C696.317 318.532 700.88 317.778 704.802 316.27C708.724 314.686 711.93 312.461 714.419 309.594C716.908 306.653 718.53 303.145 719.284 299.072H738.631ZM793.148 335.277C783.267 335.277 774.593 333.429 767.126 329.733C759.734 326.037 753.964 320.908 749.815 314.346C745.667 307.709 743.593 299.977 743.593 291.153C743.593 282.328 745.667 274.634 749.815 268.072C753.964 261.434 759.734 256.268 767.126 252.572C774.593 248.876 783.267 247.028 793.148 247.028C803.029 247.028 811.665 248.876 819.057 252.572C826.524 256.268 832.332 261.434 836.481 268.072C840.629 274.634 842.703 282.328 842.703 291.153C842.703 299.977 840.629 307.709 836.481 314.346C832.332 320.908 826.524 326.037 819.057 329.733C811.665 333.429 803.029 335.277 793.148 335.277ZM793.148 318.193C799.333 318.193 804.651 317.099 809.101 314.912C813.626 312.725 817.096 309.594 819.51 305.521C821.999 301.448 823.243 296.659 823.243 291.153C823.243 285.646 821.999 280.857 819.51 276.784C817.096 272.711 813.626 269.58 809.101 267.393C804.651 265.206 799.333 264.112 793.148 264.112C787.038 264.112 781.721 265.206 777.195 267.393C772.67 269.58 769.162 272.711 766.673 276.784C764.26 280.857 763.053 285.646 763.053 291.153C763.053 296.659 764.26 301.448 766.673 305.521C769.162 309.594 772.67 312.725 777.195 314.912C781.721 317.099 787.038 318.193 793.148 318.193ZM865.903 286.401H898.601C902.9 286.401 906.294 285.42 908.783 283.459C911.348 281.422 912.63 278.632 912.63 275.087C912.63 271.542 911.348 268.788 908.783 266.827C906.294 264.866 902.9 263.886 898.601 263.886H863.075L871.787 254.043V333.58H852.553V248.725H900.864C907.049 248.725 912.479 249.856 917.156 252.119C921.832 254.307 925.49 257.361 928.13 261.284C930.77 265.206 932.09 269.807 932.09 275.087C932.09 280.291 930.77 284.854 928.13 288.777C925.49 292.699 921.832 295.791 917.156 298.054C912.479 300.241 907.049 301.335 900.864 301.335H865.903V286.401ZM880.611 293.868H902.561L934.579 333.58H912.064L880.611 293.868ZM1013.22 283.798V298.507H952.464V283.798H1013.22ZM965.362 291.153L959.705 327.131L951.333 317.627H1016.73V333.58H940.358L946.92 291.153L940.358 248.725H1016.16V264.678H951.333L959.705 255.174L965.362 291.153Z" fill="white"/>
</g>
<defs>
<clipPath id="clip0_123_24">
<rect width="1024" height="334" fill="white"/>
</clipPath>
</defs>
</svg>
